<svg xmlns="http://www.w3.org/2000/svg" width="220" height="150" fill="none" viewBox="0 0 220 150">
  <g class="oct 12, 2022">
    <path fill="#415A77" fill-opacity=".6" d="M52.279 132.072c-.64 0-1.232-.104-1.776-.312a4.355 4.355 0 0 1-1.404-.9 4.207 4.207 0 0 1-.924-1.356 4.399 4.399 0 0 1-.324-1.704c0-.616.108-1.184.324-1.704.224-.52.536-.972.936-1.356.4-.384.868-.68 1.404-.888a4.77 4.77 0 0 1 1.776-.324c.64 0 1.224.1 1.752.3.536.2.992.504 1.368.912l-.552.564a3.14 3.14 0 0 0-1.164-.756 4.024 4.024 0 0 0-1.368-.228c-.52 0-1 .088-1.44.264a3.358 3.358 0 0 0-1.14.732c-.32.312-.572.68-.756 1.104a3.507 3.507 0 0 0-.264 1.38c0 .496.088.956.264 1.38.184.424.436.796.756 1.116.328.312.708.556 1.14.732.44.168.916.252 1.428.252.48 0 .932-.072 1.356-.216a3.157 3.157 0 0 0 1.188-.732l.504.672c-.4.352-.868.62-1.404.804a5.35 5.35 0 0 1-1.68.264Zm2.232-1.176V127.8h.852v3.204l-.852-.108Zm5.753 1.164a3.319 3.319 0 0 1-1.644-.408c-.48-.28-.86-.66-1.14-1.14-.28-.488-.42-1.044-.42-1.668 0-.632.14-1.188.42-1.668.28-.48.66-.856 1.14-1.128.48-.272 1.028-.408 1.644-.408.624 0 1.176.136 1.656.408.488.272.868.648 1.14 1.128.28.48.42 1.036.42 1.668 0 .624-.14 1.18-.42 1.668a3 3 0 0 1-1.14 1.14 3.343 3.343 0 0 1-1.656.408Zm0-.756c.456 0 .86-.1 1.212-.3.352-.208.628-.496.828-.864.208-.376.312-.808.312-1.296 0-.496-.104-.928-.312-1.296a2.123 2.123 0 0 0-.828-.852 2.314 2.314 0 0 0-1.2-.312c-.448 0-.848.104-1.2.312-.352.2-.632.484-.84.852-.208.368-.312.8-.312 1.296 0 .488.104.92.312 1.296.208.368.488.656.84.864.352.2.748.3 1.188.3Zm8.868.696v-1.392l-.036-.228v-2.328c0-.536-.152-.948-.456-1.236-.296-.288-.74-.432-1.332-.432a3.33 3.33 0 0 0-1.164.204c-.368.136-.68.316-.936.54l-.384-.636c.32-.272.704-.48 1.152-.624.448-.152.92-.228 1.416-.228.816 0 1.444.204 1.884.612.448.4.672 1.012.672 1.836V132h-.816Zm-2.172.06c-.472 0-.884-.076-1.236-.228a1.89 1.89 0 0 1-.792-.648c-.184-.28-.276-.6-.276-.96 0-.328.076-.624.228-.888.16-.272.416-.488.768-.648.36-.168.84-.252 1.44-.252h2.172v.636h-2.148c-.608 0-1.032.108-1.272.324a1.054 1.054 0 0 0-.348.804c0 .36.14.648.42.864.28.216.672.324 1.176.324.48 0 .892-.108 1.236-.324.352-.224.608-.544.768-.96l.192.588c-.16.416-.44.748-.84.996-.392.248-.888.372-1.488.372Zm5.302-.06v-8.904h.852V132h-.852Zm7.263 0v-8.04l.384.408h-2.364v-.768h2.844v8.4h-.864Z" class="Goal 1"/>
    <path fill="#415A77" fill-opacity=".4" d="M96.06 132.072c-.64 0-1.232-.104-1.776-.312a4.355 4.355 0 0 1-1.404-.9 4.207 4.207 0 0 1-.924-1.356 4.399 4.399 0 0 1-.324-1.704c0-.616.108-1.184.324-1.704.224-.52.536-.972.936-1.356.4-.384.868-.68 1.404-.888a4.77 4.77 0 0 1 1.776-.324c.64 0 1.224.1 1.752.3.536.2.992.504 1.368.912l-.552.564a3.14 3.14 0 0 0-1.164-.756 4.024 4.024 0 0 0-1.368-.228c-.52 0-1 .088-1.44.264a3.358 3.358 0 0 0-1.14.732c-.32.312-.572.68-.756 1.104a3.507 3.507 0 0 0-.264 1.38c0 .496.088.956.264 1.38.184.424.436.796.756 1.116.328.312.708.556 1.14.732.44.168.916.252 1.428.252.48 0 .932-.072 1.356-.216a3.157 3.157 0 0 0 1.188-.732l.504.672c-.4.352-.868.62-1.404.804a5.35 5.35 0 0 1-1.68.264Zm2.232-1.176V127.8h.852v3.204l-.852-.108Zm5.753 1.164a3.319 3.319 0 0 1-1.644-.408c-.48-.28-.86-.66-1.14-1.14-.28-.488-.42-1.044-.42-1.668 0-.632.14-1.188.42-1.668.28-.48.66-.856 1.14-1.128.48-.272 1.028-.408 1.644-.408.624 0 1.176.136 1.656.408.488.272.868.648 1.14 1.128.28.48.42 1.036.42 1.668 0 .624-.14 1.18-.42 1.668a3 3 0 0 1-1.14 1.14 3.343 3.343 0 0 1-1.656.408Zm0-.756c.456 0 .86-.1 1.212-.3.352-.208.628-.496.828-.864.208-.376.312-.808.312-1.296 0-.496-.104-.928-.312-1.296a2.123 2.123 0 0 0-.828-.852 2.314 2.314 0 0 0-1.2-.312c-.448 0-.848.104-1.2.312-.352.2-.632.484-.84.852-.208.368-.312.8-.312 1.296 0 .488.104.92.312 1.296.208.368.488.656.84.864.352.2.748.3 1.188.3Zm8.868.696v-1.392l-.036-.228v-2.328c0-.536-.152-.948-.456-1.236-.296-.288-.74-.432-1.332-.432a3.33 3.33 0 0 0-1.164.204c-.368.136-.68.316-.936.54l-.384-.636c.32-.272.704-.48 1.152-.624.448-.152.92-.228 1.416-.228.816 0 1.444.204 1.884.612.448.4.672 1.012.672 1.836V132h-.816Zm-2.172.06c-.472 0-.884-.076-1.236-.228a1.89 1.89 0 0 1-.792-.648c-.184-.28-.276-.6-.276-.96 0-.328.076-.624.228-.888.16-.272.416-.488.768-.648.36-.168.84-.252 1.44-.252h2.172v.636h-2.148c-.608 0-1.032.108-1.272.324a1.054 1.054 0 0 0-.348.804c0 .36.14.648.42.864.28.216.672.324 1.176.324.48 0 .892-.108 1.236-.324.352-.224.608-.544.768-.96l.192.588c-.16.416-.44.748-.84.996-.392.248-.888.372-1.488.372Zm5.302-.06v-8.904h.852V132h-.852Zm8.308.072a5.154 5.154 0 0 1-1.728-.288c-.536-.2-.968-.464-1.296-.792l.42-.684c.272.28.636.512 1.092.696.464.184.968.276 1.512.276.696 0 1.228-.152 1.596-.456.376-.304.564-.712.564-1.224s-.184-.92-.552-1.224c-.36-.304-.932-.456-1.716-.456h-.6v-.636l2.592-3.252.12.336h-4.68v-.768h5.4v.612l-2.592 3.252-.42-.276h.324c1.008 0 1.76.224 2.256.672.504.448.756 1.024.756 1.728 0 .472-.112.896-.336 1.272-.224.376-.564.672-1.02.888-.448.216-1.012.324-1.692.324Z" class="Goal 3"/>
    <g class="Goal 2">
      <path fill="#415A77" fill-opacity=".5" d="M172.036 132.072c-.64 0-1.232-.104-1.776-.312a4.355 4.355 0 0 1-1.404-.9 4.207 4.207 0 0 1-.924-1.356 4.399 4.399 0 0 1-.324-1.704c0-.616.108-1.184.324-1.704.224-.52.536-.972.936-1.356.4-.384.868-.68 1.404-.888a4.77 4.77 0 0 1 1.776-.324c.64 0 1.224.1 1.752.3.536.2.992.504 1.368.912l-.552.564a3.14 3.14 0 0 0-1.164-.756 4.024 4.024 0 0 0-1.368-.228c-.52 0-1 .088-1.44.264a3.358 3.358 0 0 0-1.14.732c-.32.312-.572.68-.756 1.104a3.507 3.507 0 0 0-.264 1.38c0 .496.088.956.264 1.38.184.424.436.796.756 1.116.328.312.708.556 1.14.732.44.168.916.252 1.428.252.48 0 .932-.072 1.356-.216a3.157 3.157 0 0 0 1.188-.732l.504.672c-.4.352-.868.62-1.404.804a5.35 5.35 0 0 1-1.68.264Zm2.232-1.176V127.8h.852v3.204l-.852-.108Zm5.754 1.164a3.319 3.319 0 0 1-1.644-.408c-.48-.28-.86-.66-1.14-1.14-.28-.488-.42-1.044-.42-1.668 0-.632.14-1.188.42-1.668.28-.48.66-.856 1.14-1.128.48-.272 1.028-.408 1.644-.408.624 0 1.176.136 1.656.408.488.272.868.648 1.14 1.128.28.48.42 1.036.42 1.668 0 .624-.14 1.18-.42 1.668a3 3 0 0 1-1.14 1.14 3.343 3.343 0 0 1-1.656.408Zm0-.756c.456 0 .86-.1 1.212-.3.352-.208.628-.496.828-.864.208-.376.312-.808.312-1.296 0-.496-.104-.928-.312-1.296a2.123 2.123 0 0 0-.828-.852 2.314 2.314 0 0 0-1.2-.312c-.448 0-.848.104-1.2.312-.352.2-.632.484-.84.852-.208.368-.312.8-.312 1.296 0 .488.104.92.312 1.296.208.368.488.656.84.864.352.2.748.3 1.188.3Zm8.868.696v-1.392l-.036-.228v-2.328c0-.536-.152-.948-.456-1.236-.296-.288-.74-.432-1.332-.432a3.33 3.33 0 0 0-1.164.204c-.368.136-.68.316-.936.54l-.384-.636c.32-.272.704-.48 1.152-.624.448-.152.92-.228 1.416-.228.816 0 1.444.204 1.884.612.448.4.672 1.012.672 1.836V132h-.816Zm-2.172.06c-.472 0-.884-.076-1.236-.228a1.89 1.89 0 0 1-.792-.648c-.184-.28-.276-.6-.276-.96 0-.328.076-.624.228-.888.16-.272.416-.488.768-.648.36-.168.84-.252 1.44-.252h2.172v.636h-2.148c-.608 0-1.032.108-1.272.324a1.054 1.054 0 0 0-.348.804c0 .36.14.648.42.864.28.216.672.324 1.176.324.48 0 .892-.108 1.236-.324.352-.224.608-.544.768-.96l.192.588c-.16.416-.44.748-.84.996-.392.248-.888.372-1.488.372Zm5.302-.06v-8.904h.852V132h-.852Z"/>
      <path fill="#415A77" fill-opacity=".4" d="M197.663 132v-.612l3.492-3.42c.32-.312.56-.584.72-.816.16-.24.268-.464.324-.672.056-.208.084-.404.084-.588 0-.488-.168-.872-.504-1.152-.328-.28-.816-.42-1.464-.42-.496 0-.936.076-1.32.228-.376.152-.7.388-.972.708l-.612-.528c.328-.384.748-.68 1.26-.888a4.522 4.522 0 0 1 1.716-.312c.568 0 1.06.092 1.476.276.416.176.736.436.96.78.232.344.348.748.348 1.212a2.88 2.88 0 0 1-.528 1.644c-.192.288-.476.616-.852.984l-3.204 3.144-.24-.336h5.208V132h-5.892Z"/>
    </g>
    <g class="Oct 12, 2022">
      <path fill="#415A77" fill-opacity=".5" d="M52.032 93.48c-2.454 0-4.4-.44-5.84-1.32-1.414-.907-2.414-2.16-3-3.76-.587-1.627-.88-3.533-.88-5.72V71c0-2.24.293-4.16.88-5.76.586-1.627 1.586-2.88 3-3.76 1.44-.88 3.386-1.32 5.84-1.32 2.4 0 4.266.4 5.6 1.2 1.36.773 2.32 1.867 2.88 3.28.56 1.413.84 3.04.84 4.88v2.8h-7v-3.24c0-.64-.04-1.253-.12-1.84-.054-.587-.24-1.067-.56-1.44-.32-.4-.867-.6-1.64-.6-.747 0-1.307.2-1.68.6-.347.4-.574.907-.68 1.52-.08.587-.12 1.213-.12 1.88v15.24c0 .72.053 1.387.16 2 .133.587.373 1.067.72 1.44.373.347.906.52 1.6.52.746 0 1.28-.187 1.6-.56.32-.4.52-.907.6-1.52.08-.613.12-1.24.12-1.88v-3.4h7v2.8c0 1.84-.28 3.493-.84 4.96-.534 1.44-1.48 2.587-2.84 3.44-1.334.827-3.214 1.24-5.64 1.24Zm17.659-.08c-1.174 0-2.16-.28-2.96-.84-.8-.56-1.4-1.267-1.8-2.12-.4-.88-.6-1.773-.6-2.68 0-1.44.28-2.653.84-3.64a8.108 8.108 0 0 1 2.28-2.48 14.878 14.878 0 0 1 3.08-1.68 46.65 46.65 0 0 1 3.32-1.28v-2.32c0-.4-.04-.747-.12-1.04-.08-.32-.214-.56-.4-.72-.187-.187-.467-.28-.84-.28-.374 0-.667.08-.88.24-.187.16-.32.387-.4.68-.08.267-.134.573-.16.92l-.16 1.68-6.08-.24c.133-2.773.866-4.813 2.2-6.12 1.36-1.333 3.386-2 6.08-2 2.346 0 4.093.653 5.24 1.96 1.173 1.28 1.76 2.947 1.76 5v10.8c0 .96.013 1.8.04 2.52.053.72.106 1.347.16 1.88.08.533.146.987.2 1.36h-5.84c-.08-.613-.174-1.28-.28-2-.107-.72-.187-1.147-.24-1.28-.267.96-.774 1.813-1.52 2.56-.72.747-1.694 1.12-2.92 1.12Zm2.32-4.4c.266 0 .506-.053.72-.16.24-.107.453-.253.64-.44.186-.187.346-.373.48-.56v-6.32c-.534.32-1.027.653-1.48 1-.454.32-.84.68-1.16 1.08-.32.4-.574.84-.76 1.32-.16.453-.24.973-.24 1.56 0 .773.16 1.387.48 1.84.32.453.76.68 1.32.68Zm11.943 4V69.88h6.52v2.32c.853-.853 1.733-1.52 2.64-2a6.304 6.304 0 0 1 2.92-.72c.96 0 1.747.24 2.36.72.64.453 1.12 1.093 1.44 1.92.32.8.48 1.72.48 2.76V93h-6.48V75.8c0-.56-.093-.987-.28-1.28-.187-.293-.533-.44-1.04-.44-.267 0-.587.08-.96.24a4.912 4.912 0 0 0-1.08.6V93h-6.52Zm24.354.4c-.934 0-1.734-.227-2.4-.68-.64-.48-1.12-1.133-1.44-1.96-.32-.827-.48-1.747-.48-2.76V69.88h6.52v17.36c0 .56.093 1 .28 1.32.213.293.573.44 1.08.44.293 0 .6-.067.92-.2.32-.16.653-.333 1-.52v-18.4h6.48V93h-6.48v-2.12a10.737 10.737 0 0 1-2.64 1.84 6.276 6.276 0 0 1-2.84.68Zm23.596 0c-1.68 0-3.12-.307-4.32-.92a6.488 6.488 0 0 1-2.72-2.64c-.64-1.147-.96-2.533-.96-4.16V77.2c0-1.653.32-3.053.96-4.2a6.244 6.244 0 0 1 2.72-2.6c1.2-.613 2.64-.92 4.32-.92 1.653 0 3.053.253 4.2.76 1.173.507 2.066 1.28 2.68 2.32.613 1.013.92 2.307.92 3.88v2.44h-6.28v-2.64c0-.613-.067-1.08-.2-1.4-.107-.347-.28-.587-.52-.72-.214-.133-.48-.2-.8-.2-.32 0-.587.093-.8.28-.214.16-.374.44-.48.84-.107.373-.16.907-.16 1.6v9.6c0 1.04.12 1.747.36 2.12.266.373.64.56 1.12.56.346 0 .626-.067.84-.2.213-.16.373-.4.48-.72.106-.347.16-.8.16-1.36v-3.08h6.28v2.8c0 1.547-.32 2.853-.96 3.92-.614 1.04-1.507 1.827-2.68 2.36-1.147.507-2.534.76-4.16.76Zm11.191-.4V60.6h6.48v17.96l5.68-8.68h7.32l-6.16 9.48 6.08 13.64h-7.12l-4.08-11-1.72 2.2V93h-6.48Zm28.76.4c-2.026 0-3.72-.453-5.08-1.36-1.333-.907-2.426-2.387-3.28-4.44l4.44-1.96c.427 1.04.92 1.867 1.48 2.48.587.587 1.227.88 1.92.88.507 0 .88-.107 1.12-.32.267-.213.4-.507.4-.88 0-.613-.24-1.173-.72-1.68-.453-.507-1.28-1.253-2.48-2.24l-1.68-1.4c-1.226-1.04-2.2-2.04-2.92-3-.693-.987-1.04-2.2-1.04-3.64 0-1.253.32-2.36.96-3.32a6.76 6.76 0 0 1 2.64-2.24 7.926 7.926 0 0 1 3.52-.8c1.894 0 3.48.52 4.76 1.56 1.28 1.04 2.174 2.507 2.68 4.4l-4.2 1.92a7.575 7.575 0 0 0-.68-1.52 4.585 4.585 0 0 0-1.08-1.28c-.4-.347-.84-.52-1.32-.52-.426 0-.773.12-1.04.36-.24.24-.36.56-.36.96 0 .507.28 1.053.84 1.64.587.587 1.387 1.293 2.4 2.12l1.64 1.44c.667.56 1.32 1.16 1.96 1.8a8.53 8.53 0 0 1 1.56 2.12c.427.773.64 1.653.64 2.64 0 1.333-.333 2.48-1 3.44-.666.933-1.546 1.64-2.64 2.12a8.282 8.282 0 0 1-3.44.72Z" class="Canucks"/>
      <path fill="#C85151" fill-rule="evenodd" d="M27.463 0c-12.702 0-23 10.297-23 23v126.509h7.71V20.724c0-7.18 5.82-13 13-13h169.473c7.18 0 13 5.82 13 13v128.785h7.709V23c0-12.703-10.298-23-23-23H27.463Z" class="Subtract" clip-rule="evenodd"/>
      <circle cx="186" cy="143" r="7" fill="#735CDD" fill-opacity=".6" class="Ellipse 2"/>
      <circle cx="110" cy="143" r="7" fill="#735CDD" fill-opacity=".2" class="Ellipse 4"/>
      <circle cx="64" cy="143" r="7" fill="#735CDD" class="Ellipse 3"/>
    </g>
  </g>
</svg>
