<svg xmlns="http://www.w3.org/2000/svg" width="220" height="150" fill="none" viewBox="0 0 220 150">
  <g class="Group 7">
    <path fill="#415A77" fill-opacity=".5" d="M31.521 93V60.6h10.88c1.947 0 3.547.373 4.8 1.12 1.253.72 2.187 1.787 2.8 3.2.613 1.387.92 3.08.92 5.08 0 2.507-.413 4.427-1.24 5.76-.827 1.307-1.947 2.213-3.36 2.72-1.413.507-3 .76-4.76.76h-2.88V93h-7.16Zm7.16-18.76h2.4c.88 0 1.547-.16 2-.48.453-.32.747-.8.88-1.44.16-.64.24-1.453.24-2.44 0-.827-.067-1.547-.2-2.16-.107-.64-.387-1.147-.84-1.52-.453-.373-1.16-.56-2.12-.56h-2.36v8.6ZM54.093 93V69.88h6.52v3.84c.746-1.333 1.493-2.347 2.24-3.04.746-.72 1.653-1.08 2.72-1.08.213 0 .4.013.56.04.16 0 .306.027.44.08v6.48a4.897 4.897 0 0 0-1-.32 3.79 3.79 0 0 0-1.12-.16c-.747 0-1.44.2-2.08.6-.64.4-1.227.947-1.76 1.64V93h-6.52Zm22.792.4c-1.68 0-3.12-.293-4.32-.88-1.2-.613-2.12-1.493-2.76-2.64-.64-1.173-.96-2.573-.96-4.2V77.2c0-1.653.32-3.053.96-4.2a6.202 6.202 0 0 1 2.76-2.6c1.227-.613 2.667-.92 4.32-.92 1.707 0 3.12.293 4.24.88 1.147.587 2 1.453 2.56 2.6.587 1.147.88 2.56.88 4.24v4.64h-9.28v4.44c0 .587.067 1.067.2 1.44s.32.64.56.8c.24.16.52.24.84.24.32 0 .6-.067.84-.2.267-.16.467-.4.6-.72.16-.32.24-.76.24-1.32v-2.44h6v2.24c0 2.347-.68 4.12-2.04 5.32-1.36 1.173-3.24 1.76-5.64 1.76Zm-1.6-14.6h3.28v-2.32c0-.613-.08-1.093-.24-1.44-.133-.347-.333-.587-.6-.72-.24-.133-.533-.2-.88-.2-.32 0-.6.08-.84.24-.213.16-.386.44-.52.84-.133.373-.2.92-.2 1.64v1.96Zm17.83 14.6c-1.707 0-3.027-.6-3.96-1.8-.934-1.2-1.4-2.973-1.4-5.32v-9.56c0-1.44.2-2.693.6-3.76.4-1.093 1-1.947 1.8-2.56s1.786-.92 2.96-.92c.853 0 1.666.173 2.44.52.773.32 1.48.76 2.12 1.32V60.6h6.519V93h-6.52v-1.8c-.72.693-1.466 1.24-2.24 1.64-.773.373-1.546.56-2.32.56Zm2.84-4.16c.213 0 .466-.053.76-.16.32-.107.64-.253.96-.44v-14.6a7.958 7.958 0 0 0-.84-.36 2.456 2.456 0 0 0-.84-.16c-.587 0-1.014.253-1.28.76-.267.48-.4 1.067-.4 1.76v10.64c0 .48.053.92.16 1.32.106.373.28.68.52.92.24.213.56.32.96.32Zm17.036 4.16c-1.173 0-2.16-.28-2.96-.84-.8-.56-1.4-1.267-1.8-2.12-.4-.88-.6-1.773-.6-2.68 0-1.44.28-2.653.84-3.64a8.115 8.115 0 0 1 2.28-2.48 14.893 14.893 0 0 1 3.08-1.68c1.12-.48 2.227-.907 3.32-1.28v-2.32c0-.4-.04-.747-.12-1.04-.08-.32-.213-.56-.4-.72-.186-.187-.466-.28-.84-.28-.373 0-.666.08-.88.24-.186.16-.32.387-.4.68-.08.267-.133.573-.16.92l-.16 1.68-6.08-.24c.134-2.773.867-4.813 2.2-6.12 1.36-1.333 3.387-2 6.08-2 2.347 0 4.094.653 5.24 1.96 1.174 1.28 1.76 2.947 1.76 5v10.8c0 .96.014 1.8.04 2.52.054.72.107 1.347.16 1.88.08.533.147.987.2 1.36h-5.84c-.08-.613-.173-1.28-.28-2-.106-.72-.186-1.147-.24-1.28-.266.96-.773 1.813-1.52 2.56-.72.747-1.693 1.12-2.92 1.12Zm2.32-4.4c.267 0 .507-.053.72-.16.24-.107.454-.253.64-.44.187-.187.347-.373.48-.56v-6.32c-.533.32-1.026.653-1.48 1-.453.32-.84.68-1.16 1.08-.32.4-.573.84-.76 1.32-.16.453-.24.973-.24 1.56 0 .773.16 1.387.48 1.84.32.453.76.68 1.32.68Zm19.026 4.24c-1.734 0-3.08-.253-4.04-.76-.934-.507-1.574-1.24-1.92-2.2-.347-.987-.52-2.173-.52-3.56V74.16h-2.24v-4.28h2.24v-7.04h6.6v7.04h3.28v4.28h-3.28v11.92c0 .667.186 1.147.56 1.44.4.293.893.44 1.48.44.346 0 .666-.013.96-.04.293-.053.56-.093.8-.12v5.12c-.347.053-.894.12-1.64.2-.747.08-1.507.12-2.28.12Zm14.58.16c-1.653 0-3.093-.28-4.32-.84a6.266 6.266 0 0 1-2.8-2.52c-.64-1.12-.96-2.52-.96-4.2v-8.8c0-1.68.32-3.08.96-4.2a6.266 6.266 0 0 1 2.8-2.52c1.227-.56 2.667-.84 4.32-.84 1.654 0 3.08.28 4.28.84 1.227.56 2.174 1.4 2.84 2.52.667 1.12 1 2.52 1 4.2v8.8c0 1.68-.333 3.08-1 4.2-.666 1.12-1.613 1.96-2.84 2.52-1.2.56-2.626.84-4.28.84Zm.04-4.32c.427 0 .76-.107 1-.32.24-.24.4-.56.48-.96.107-.427.16-.933.16-1.52V76.6c0-.587-.053-1.08-.16-1.48-.08-.427-.24-.747-.48-.96-.24-.24-.573-.36-1-.36-.426 0-.76.12-1 .36-.24.213-.413.533-.52.96-.106.4-.16.893-.16 1.48v9.68c0 .587.054 1.093.16 1.52.107.4.28.72.52.96.24.213.574.32 1 .32ZM160.733 93V69.88h6.52v3.84c.747-1.333 1.494-2.347 2.24-3.04.747-.72 1.654-1.08 2.72-1.08.214 0 .4.013.56.04.16 0 .307.027.44.08v6.48a4.875 4.875 0 0 0-1-.32 3.786 3.786 0 0 0-1.12-.16c-.746 0-1.44.2-2.08.6-.64.4-1.226.947-1.76 1.64V93h-6.52Zm22.353.4c-2.027 0-3.72-.453-5.08-1.36-1.334-.907-2.427-2.387-3.28-4.44l4.44-1.96c.426 1.04.92 1.867 1.48 2.48.586.587 1.226.88 1.92.88.506 0 .88-.107 1.12-.32.266-.213.4-.507.4-.88 0-.613-.24-1.173-.72-1.68-.454-.507-1.28-1.253-2.48-2.24l-1.68-1.4c-1.227-1.04-2.2-2.04-2.92-3-.694-.987-1.04-2.2-1.04-3.64 0-1.253.32-2.36.96-3.32a6.744 6.744 0 0 1 2.64-2.24 7.92 7.92 0 0 1 3.52-.8c1.893 0 3.48.52 4.76 1.56 1.28 1.04 2.173 2.507 2.68 4.4l-4.2 1.92a7.631 7.631 0 0 0-.68-1.52 4.619 4.619 0 0 0-1.08-1.28c-.4-.347-.84-.52-1.32-.52-.427 0-.774.12-1.04.36-.24.24-.36.56-.36.96 0 .507.28 1.053.84 1.64.586.587 1.386 1.293 2.4 2.12l1.64 1.44c.666.56 1.32 1.16 1.96 1.8a8.53 8.53 0 0 1 1.56 2.12c.426.773.64 1.653.64 2.64 0 1.333-.334 2.48-1 3.44-.667.933-1.547 1.64-2.64 2.12a8.288 8.288 0 0 1-3.44.72Z" class="Predators"/>
    <path fill="#C85151" fill-rule="evenodd" d="M27.463 0c-12.702 0-23 10.297-23 23v126.509h7.71V20.724c0-7.18 5.82-13 13-13h169.473c7.18 0 13 5.82 13 13v128.785h7.709V23c0-12.703-10.298-23-23-23H27.463Z" class="Subtract" clip-rule="evenodd"/>
    <circle cx="21" cy="30" r="7" fill="#735CDD" fill-opacity=".6" class="Ellipse 5"/>
    <circle cx="114" cy="143" r="7" fill="#735CDD" class="Ellipse 7"/>
  </g>
</svg>
