<svg xmlns="http://www.w3.org/2000/svg" width="220" height="150" fill="none" viewBox="0 0 220 150">
  <g class="Group 8">
    <path fill="#415A77" fill-opacity=".5" d="M37.89 93.48c-2.452 0-4.4-.44-5.84-1.32-1.412-.907-2.412-2.16-3-3.76-.586-1.627-.88-3.533-.88-5.72V71c0-2.24.294-4.16.88-5.76.588-1.627 1.588-2.88 3-3.76 1.44-.88 3.388-1.32 5.84-1.32 2.4 0 4.268.4 5.6 1.2 1.36.773 2.32 1.867 2.88 3.28.56 1.413.84 3.04.84 4.88v2.8h-7v-3.24c0-.64-.04-1.253-.12-1.84-.052-.587-.24-1.067-.56-1.44-.32-.4-.866-.6-1.64-.6-.746 0-1.306.2-1.68.6-.346.4-.572.907-.68 1.52-.08.587-.12 1.213-.12 1.88v15.24c0 .72.054 1.387.16 2 .134.587.374 1.067.72 1.44.374.347.908.52 1.6.52.748 0 1.28-.187 1.6-.56.32-.4.52-.907.6-1.52.08-.613.12-1.24.12-1.88v-3.4h7v2.8c0 1.84-.28 3.493-.84 4.96-.532 1.44-1.48 2.587-2.84 3.44-1.332.827-3.212 1.24-5.64 1.24Zm17.66-.08c-1.173 0-2.16-.28-2.96-.84-.8-.56-1.4-1.267-1.8-2.12-.4-.88-.6-1.773-.6-2.68 0-1.44.28-2.653.84-3.64a8.108 8.108 0 0 1 2.28-2.48 14.875 14.875 0 0 1 3.08-1.68c1.12-.48 2.227-.907 3.32-1.28v-2.32c0-.4-.04-.747-.12-1.04-.08-.32-.213-.56-.4-.72-.187-.187-.467-.28-.84-.28-.373 0-.667.08-.88.24-.187.16-.32.387-.4.68-.08.267-.133.573-.16.92l-.16 1.68-6.08-.24c.133-2.773.867-4.813 2.2-6.12 1.36-1.333 3.387-2 6.08-2 2.347 0 4.093.653 5.24 1.96 1.173 1.28 1.76 2.947 1.76 5v10.8c0 .96.013 1.8.04 2.52.053.72.107 1.347.16 1.88.08.533.147.987.2 1.36h-5.84c-.08-.613-.173-1.28-.28-2-.107-.72-.187-1.147-.24-1.28-.267.96-.773 1.813-1.52 2.56-.72.747-1.693 1.12-2.92 1.12Zm2.32-4.4c.267 0 .507-.053.72-.16a2.11 2.11 0 0 0 .64-.44c.187-.187.347-.373.48-.56v-6.32a15.84 15.84 0 0 0-1.48 1c-.453.32-.84.68-1.16 1.08-.32.4-.573.84-.76 1.32-.16.453-.24.973-.24 1.56 0 .773.16 1.387.48 1.84.32.453.76.68 1.32.68Zm11.943 4V69.88h6.52v2.32c.854-.853 1.734-1.52 2.64-2a6.305 6.305 0 0 1 2.92-.72c.96 0 1.747.24 2.36.72.64.453 1.12 1.093 1.44 1.92.32.8.48 1.72.48 2.76V93h-6.48V75.8c0-.56-.093-.987-.28-1.28-.186-.293-.533-.44-1.04-.44-.266 0-.586.08-.96.24a4.917 4.917 0 0 0-1.08.6V93h-6.52Zm25.034.4c-1.173 0-2.16-.28-2.96-.84-.8-.56-1.4-1.267-1.8-2.12-.4-.88-.6-1.773-.6-2.68 0-1.44.28-2.653.84-3.64a8.105 8.105 0 0 1 2.28-2.48 14.875 14.875 0 0 1 3.08-1.68c1.12-.48 2.227-.907 3.32-1.28v-2.32c0-.4-.04-.747-.12-1.04-.08-.32-.213-.56-.4-.72-.187-.187-.467-.28-.84-.28-.374 0-.667.08-.88.24-.187.16-.32.387-.4.68-.08.267-.133.573-.16.92l-.16 1.68-6.08-.24c.133-2.773.867-4.813 2.2-6.12 1.36-1.333 3.386-2 6.08-2 2.347 0 4.093.653 5.24 1.96 1.173 1.28 1.76 2.947 1.76 5v10.8c0 .96.013 1.8.04 2.52.053.72.107 1.347.16 1.88.08.533.147.987.2 1.36h-5.84c-.08-.613-.174-1.28-.28-2-.107-.72-.187-1.147-.24-1.28-.267.96-.774 1.813-1.52 2.56-.72.747-1.694 1.12-2.92 1.12Zm2.32-4.4c.266 0 .507-.053.72-.16a2.11 2.11 0 0 0 .64-.44c.186-.187.347-.373.48-.56v-6.32c-.534.32-1.027.653-1.48 1-.454.32-.84.68-1.16 1.08-.32.4-.574.84-.76 1.32-.16.453-.24.973-.24 1.56 0 .773.16 1.387.48 1.84.32.453.76.68 1.32.68Zm16.943 4.4c-1.706 0-3.026-.6-3.96-1.8-.933-1.2-1.4-2.973-1.4-5.32v-9.56c0-1.44.2-2.693.6-3.76.4-1.093 1-1.947 1.8-2.56s1.787-.92 2.96-.92a5.89 5.89 0 0 1 2.44.52c.774.32 1.48.76 2.12 1.32V60.6h6.52V93h-6.52v-1.8c-.72.693-1.466 1.24-2.24 1.64-.773.373-1.546.56-2.32.56Zm2.84-4.16c.214 0 .467-.053.76-.16.32-.107.64-.253.96-.44v-14.6a7.852 7.852 0 0 0-.84-.36 2.453 2.453 0 0 0-.84-.16c-.586 0-1.013.253-1.28.76-.266.48-.4 1.067-.4 1.76v10.64c0 .48.054.92.16 1.32.107.373.28.68.52.92.24.213.56.32.96.32ZM129.268 93V69.88h6.52V93h-6.52Zm-.04-27.04v-4.52h6.56v4.52h-6.56Zm18.145 27.44c-1.68 0-3.12-.293-4.32-.88-1.2-.613-2.12-1.493-2.76-2.64-.64-1.173-.96-2.573-.96-4.2V77.2c0-1.653.32-3.053.96-4.2a6.202 6.202 0 0 1 2.76-2.6c1.227-.613 2.667-.92 4.32-.92 1.707 0 3.12.293 4.24.88 1.147.587 2 1.453 2.56 2.6.587 1.147.88 2.56.88 4.24v4.64h-9.28v4.44c0 .587.067 1.067.2 1.44.134.373.32.64.56.8.24.16.52.24.84.24.32 0 .6-.067.84-.2.267-.16.467-.4.6-.72.16-.32.24-.76.24-1.32v-2.44h6v2.24c0 2.347-.68 4.12-2.04 5.32-1.36 1.173-3.24 1.76-5.64 1.76Zm-1.6-14.6h3.28v-2.32c0-.613-.08-1.093-.24-1.44-.133-.347-.333-.587-.6-.72-.24-.133-.533-.2-.88-.2-.32 0-.6.08-.84.24-.213.16-.386.44-.52.84-.133.373-.2.92-.2 1.64v1.96Zm12.83 14.2V69.88h6.52v2.32c.853-.853 1.733-1.52 2.64-2a6.301 6.301 0 0 1 2.92-.72c.96 0 1.746.24 2.36.72.64.453 1.12 1.093 1.44 1.92.32.8.48 1.72.48 2.76V93h-6.48V75.8c0-.56-.094-.987-.28-1.28-.187-.293-.534-.44-1.04-.44-.267 0-.587.08-.96.24a4.899 4.899 0 0 0-1.08.6V93h-6.52Zm27.393.4c-2.027 0-3.72-.453-5.08-1.36-1.333-.907-2.427-2.387-3.28-4.44l4.44-1.96c.427 1.04.92 1.867 1.48 2.48.587.587 1.227.88 1.92.88.507 0 .88-.107 1.12-.32.267-.213.4-.507.4-.88 0-.613-.24-1.173-.72-1.68-.453-.507-1.28-1.253-2.48-2.24l-1.68-1.4c-1.227-1.04-2.2-2.04-2.92-3-.693-.987-1.04-2.2-1.04-3.64 0-1.253.32-2.36.96-3.32a6.76 6.76 0 0 1 2.64-2.24 7.923 7.923 0 0 1 3.52-.8c1.893 0 3.48.52 4.76 1.56 1.28 1.04 2.173 2.507 2.68 4.4l-4.2 1.92a7.631 7.631 0 0 0-.68-1.52 4.585 4.585 0 0 0-1.08-1.28c-.4-.347-.84-.52-1.32-.52-.427 0-.773.12-1.04.36-.24.24-.36.56-.36.96 0 .507.28 1.053.84 1.64.587.587 1.387 1.293 2.4 2.12l1.64 1.44c.667.56 1.32 1.16 1.96 1.8a8.53 8.53 0 0 1 1.56 2.12c.427.773.64 1.653.64 2.64 0 1.333-.333 2.48-1 3.44-.667.933-1.547 1.64-2.64 2.12a8.285 8.285 0 0 1-3.44.72Z" class="Canadiens"/>
    <path fill="#C85151" fill-rule="evenodd" d="M27.463 0c-12.702 0-23 10.297-23 23v126.509h7.71V20.724c0-7.18 5.82-13 13-13h169.473c7.18 0 13 5.82 13 13v128.785h7.709V23c0-12.703-10.298-23-23-23H27.463Z" class="Subtract" clip-rule="evenodd"/>
    <circle cx="50" cy="49" r="7" fill="#735CDD" fill-opacity=".6" class="Ellipse 8"/>
    <circle cx="107" cy="143" r="7" fill="#735CDD" class="Ellipse 9"/>
  </g>
</svg>
