<svg xmlns="http://www.w3.org/2000/svg" width="59" height="78" fill="none" viewBox="0 0 59 89">
  <path fill="#FBFBFB" d="M44.252 29.672c3.911 0 7.663-1.563 10.428-4.345A14.882 14.882 0 0 0 59 14.837c0-3.936-1.554-7.71-4.32-10.492A14.704 14.704 0 0 0 44.252 0H14.757c-3.91 0-7.659 1.562-10.423 4.343A14.873 14.873 0 0 0 .017 14.828c0 3.932 1.553 7.704 4.317 10.484a14.695 14.695 0 0 0 10.422 4.343 14.704 14.704 0 0 0-10.428 4.346 14.881 14.881 0 0 0-4.32 10.49 14.88 14.88 0 0 0 4.32 10.491 14.704 14.704 0 0 0 10.428 4.346 14.685 14.685 0 0 0-8.194 2.495 14.817 14.817 0 0 0-5.436 6.655 14.919 14.919 0 0 0-.844 8.572 14.864 14.864 0 0 0 4.031 7.598 14.72 14.72 0 0 0 7.55 4.065c2.86.574 5.825.282 8.52-.839 2.696-1.121 5-3.022 6.622-5.46a14.9 14.9 0 0 0 2.49-8.242v-44.5h14.757Zm0 0c-2.915 0-5.765.87-8.189 2.5a14.808 14.808 0 0 0-5.428 6.654 14.91 14.91 0 0 0-.839 8.567 14.855 14.855 0 0 0 4.034 7.592 14.712 14.712 0 0 0 7.547 4.058c2.859.572 5.822.278 8.516-.844a14.76 14.76 0 0 0 6.614-5.461 14.891 14.891 0 0 0 2.484-8.238c0-3.932-1.553-7.703-4.317-10.484a14.696 14.696 0 0 0-10.422-4.343Z" class="figma"/>
</svg>
