<svg xmlns="http://www.w3.org/2000/svg" width="78" height="78" fill="none" viewBox="0 0 78 78">
  <path fill="#FBFBFB" d="M69.26 0H8.74C3.952 0 0 3.952 0 8.74v60.52C0 74.048 3.952 78 8.74 78h60.52c4.788 0 8.74-3.952 8.74-8.74V8.74C78 3.952 74.048 0 69.26 0Zm-7.905 49.499c0 .73-.626 1.044-1.358 1.358-2.907 1.253-6.024 2.385-9.367 2.385-4.683 0-6.86-2.908-12.483-2.908-4.057 0-8.322 1.463-11.752 3.012-.21.105-.418.105-.627.21v7.904c0 .313 0 .627-.105.835v.21a3.458 3.458 0 0 1-3.325 2.49 3.515 3.515 0 0 1-3.534-3.535V23.4c-1.358-1.045-2.281-2.699-2.281-4.579a5.822 5.822 0 0 1 5.832-5.833 5.822 5.822 0 0 1 5.833 5.833c0 1.88-.836 3.534-2.28 4.579v3.221c.313-.104.626-.209.94-.418 3.22-1.358 7.068-2.49 10.707-2.49 3.952 0 7.069 1.045 10.603 2.386.731.313 1.462.418 2.28.418 3.953 0 8.323-2.804 9.368-2.804.836 0 1.567.627 1.567 1.358V49.5h-.018Z" class="font-awesome"/>
</svg>
