<svg xmlns="http://www.w3.org/2000/svg" width="78" height="78" fill="none" viewBox="0 0 78 78">
  <path fill="#FBFBFB" d="M0 0v78h78V0H0Zm42.447 60.833c0 7.591-4.457 11.056-10.951 11.056-5.867 0-9.262-3.03-11.004-6.703l5.972-3.604c1.15 2.037 2.194 3.76 4.719 3.76 2.402 0 3.934-.94 3.934-4.613V35.814h7.33v25.019Zm17.341 11.056c-6.807 0-11.212-3.239-13.354-7.487l5.972-3.447c1.567 2.56 3.622 4.457 7.226 4.457 3.03 0 4.98-1.515 4.98-3.621 0-2.508-1.986-3.395-5.346-4.875l-1.828-.784c-5.293-2.246-8.793-5.084-8.793-11.056 0-5.501 4.197-9.68 10.725-9.68 4.667 0 8.01 1.62 10.412 5.867l-5.71 3.657c-1.254-2.246-2.612-3.134-4.719-3.134-2.141 0-3.5 1.358-3.5 3.134 0 2.193 1.359 3.081 4.51 4.457l1.828.783c6.233 2.664 9.733 5.398 9.733 11.526 0 6.581-5.189 10.203-12.136 10.203Z" class="js"/>
</svg>
